Coordinates
version=1
nRows=9
nColumns=24
inDegrees=yes

Units are S.I. units (second, meters, Newtons, ...)
Angles are in degrees.

endheader
time	pelvis_tilt	pelvis_list	pelvis_rotation	pelvis_tx	pelvis_ty	pelvis_tz	hip_flexion_r	hip_adduction_r	hip_rotation_r	knee_angle_r	ankle_angle_r	subtalar_angle_r	mtp_angle_r	hip_flexion_l	hip_adduction_l	hip_rotation_l	knee_angle_l	ankle_angle_l	subtalar_angle_l	mtp_angle_l	lumbar_extension	lumbar_bending	lumbar_rotation
      1.42900000	     -1.29697577	     -1.30203236	     -9.59008855	      0.85015157	      0.97735055	      0.33780463	    -22.82638739	      3.91424671	      6.40546900	     -6.24495182	     15.52847860	     -0.91314857	      1.64666208	     31.41003858	     -4.29794233	    -11.09763961	      1.77475182	     12.72966321	     -5.57679055	     -3.52763520	     -4.84811890	     -2.04792886	      7.30571642
      1.43316667	     -1.35071847	     -1.18264113	     -9.78284209	      0.85655888	      0.97624394	      0.33781526	    -23.03991795	      3.64568450	      6.38132594	     -6.39005951	     15.39532710	     -0.69203512	      2.03405492	     31.53903203	     -4.24750248	    -11.12871744	      1.09064382	     13.29979343	     -5.53108463	     -3.32212683	     -4.69255855	     -2.20687584	      7.55345040
      1.43733333	     -1.41321035	     -1.07081584	     -9.97205454	      0.86300875	      0.97513469	      0.33780450	    -23.23185202	      3.38678347	      6.34624403	     -6.55981240	     15.21126156	     -0.51274394	      2.57118164	     31.65908784	     -4.19672762	    -11.09617637	      0.41442668	     13.81496185	     -5.57002826	     -3.03446572	     -4.53183468	     -2.34697564	      7.82669948
      1.44150000	     -1.43973415	     -0.95377657	    -10.13937984	      0.86952812	      0.97408388	      0.33777263	    -23.46368727	      3.12596947	      6.30080840	     -6.72460739	     14.96625366	     -0.42731186	      2.62954582	     31.70649550	     -4.11341084	    -10.95384810	     -0.20902395	     14.25257118	     -5.79503896	     -2.98666204	     -4.42604163	     -2.49467480	      7.87809063
      1.44566667	     -1.49048214	     -0.83501701	    -10.30714840	      0.87610995	      0.97301547	      0.33772494	    -23.65813756	      2.86418051	      6.24888032	     -6.91332375	     14.71919394	     -0.29578136	      2.71289668	     31.77044492	     -4.02819635	    -10.81409668	     -0.83824429	     14.67273410	     -5.96642550	     -2.92468031	     -4.26265219	     -2.64336332	      8.03330850
      1.44983333	     -1.56510895	     -0.70569238	    -10.45753089	      0.88275027	      0.97192110	      0.33762543	    -23.80869650	      2.59731739	      6.13966577	     -7.13839797	     14.50665579	     -0.04854973	      2.95727792	     31.86804211	     -3.92561793	    -10.71032744	     -1.49774938	     15.03915786	     -6.06390950	     -2.76810102	     -4.08161642	     -2.79583784	      8.41709694
      1.45400000	     -1.57979186	     -0.55136319	    -10.64191585	      0.88945888	      0.97095455	      0.33755140	    -23.98770922	      2.27306992	      5.96591837	     -7.41354831	     14.22238788	      0.26634718	      6.28348099	     31.87115860	     -3.80255811	    -10.71320411	     -2.11117289	     15.36007001	     -6.11930776	     -0.76008065	     -3.94829767	     -2.97019794	      8.52477962
      1.45816667	     -1.65894467	     -0.41325829	    -10.80311882	      0.89619448	      0.96991258	      0.33747097	    -24.11271241	      1.99968364	      5.94201610	     -7.67402516	     13.91110238	      0.30701475	      6.34306700	     31.92399361	     -3.68192235	    -10.52344523	     -2.69112517	     15.58244839	     -6.40289957	     -0.71322202	     -3.73489329	     -3.12679648	      8.81445732
      1.46233333	     -1.69633473	     -0.25707655	    -10.94376578	      0.90301116	      0.96894600	      0.33734169	    -24.27432604	      1.70293348	      5.85691694	     -7.94333591	     13.57954447	      0.42133122	      6.37920022	     31.92845162	     -3.52263775	    -10.36468932	     -3.25680654	     15.76853398	     -6.60307790	     -0.67675530	     -3.55584132	     -3.31625196	      8.91994714
